<svg id="svg" version="1.1" xmlns="http://www.w3.org/2000/svg" xmlns:xlink="http://www.w3.org/1999/xlink" width="400" height="400" viewBox="0, 0, 400,400"><g id="svgg"><path id="path0" d="M82.400 1.200 C 82.400 1.860,82.580 2.400,82.800 2.400 C 83.020 2.400,83.200 1.860,83.200 1.200 C 83.200 0.540,83.020 0.000,82.800 0.000 C 82.580 0.000,82.400 0.540,82.400 1.200 M83.600 1.200 C 83.600 2.000,83.800 2.400,84.200 2.400 C 84.600 2.400,84.800 2.000,84.800 1.200 C 84.800 0.400,84.600 0.000,84.200 0.000 C 83.800 0.000,83.600 0.400,83.600 1.200 M85.200 1.200 C 85.200 2.267,85.333 2.400,86.400 2.400 C 87.467 2.400,87.600 2.267,87.600 1.200 C 87.600 0.133,87.467 0.000,86.400 0.000 C 85.333 0.000,85.200 0.133,85.200 1.200 M0.000 83.025 L 0.000 88.451 1.300 88.325 C 2.865 88.174,3.534 85.047,3.022 80.270 L 2.736 77.600 1.368 77.600 L 0.000 77.600 0.000 83.025 M397.531 94.500 C 397.493 95.655,397.471 97.050,397.483 97.600 C 397.606 103.723,397.483 103.200,398.800 103.200 L 400.000 103.200 400.000 97.800 L 400.000 92.400 398.800 92.400 C 397.628 92.400,397.598 92.449,397.531 94.500 M194.917 109.530 C 192.141 111.621,186.818 117.252,184.792 120.241 C 184.061 121.318,182.844 122.898,182.087 123.751 C 181.329 124.604,180.354 126.106,179.919 127.089 C 179.484 128.072,178.507 129.564,177.748 130.405 C 176.989 131.246,175.684 133.523,174.849 135.467 C 174.014 137.410,172.852 139.700,172.266 140.555 C 171.680 141.410,170.857 143.300,170.437 144.755 C 169.069 149.489,168.481 151.345,167.255 154.800 C 164.123 163.629,164.399 182.814,167.805 193.000 C 168.761 195.860,169.837 199.370,170.194 200.800 C 170.552 202.230,171.616 204.750,172.560 206.400 C 173.503 208.050,174.606 210.278,175.011 211.350 C 175.416 212.423,176.359 214.033,177.107 214.928 C 177.855 215.824,178.991 217.594,179.631 218.862 C 180.272 220.131,181.595 222.068,182.571 223.168 C 183.548 224.267,184.826 225.984,185.411 226.983 C 185.997 227.982,187.009 229.179,187.660 229.643 C 188.311 230.106,189.264 231.142,189.777 231.943 C 191.192 234.154,196.974 240.000,197.746 240.000 C 199.187 240.000,202.407 237.938,204.071 235.950 C 205.022 234.814,206.733 232.845,207.872 231.576 C 209.012 230.306,210.212 228.757,210.538 228.133 C 210.865 227.510,211.793 226.370,212.602 225.600 C 213.410 224.830,214.489 223.390,215.000 222.400 C 215.511 221.410,216.569 219.886,217.352 219.013 C 218.135 218.140,219.412 216.103,220.191 214.486 C 220.969 212.869,222.124 210.883,222.758 210.073 C 223.392 209.263,224.572 206.713,225.380 204.407 C 226.189 202.100,227.203 199.642,227.635 198.943 C 232.902 190.421,232.641 158.419,227.216 147.621 C 226.602 146.399,225.632 143.858,225.060 141.973 C 224.487 140.088,223.565 137.928,223.010 137.173 C 222.456 136.418,221.366 134.473,220.588 132.850 C 219.811 131.228,218.394 128.888,217.440 127.650 C 216.486 126.413,215.196 124.442,214.573 123.271 C 213.950 122.099,212.949 120.791,212.349 120.363 C 211.748 119.936,210.856 118.914,210.367 118.093 C 209.879 117.272,208.561 115.698,207.439 114.596 C 206.318 113.493,204.950 112.001,204.400 111.279 C 203.618 110.253,198.052 107.327,197.459 107.630 C 197.426 107.646,196.283 108.501,194.917 109.530 M96.200 199.062 C 93.054 200.713,92.000 202.314,92.000 205.438 C 92.000 214.357,95.260 234.105,97.568 239.165 C 98.430 241.054,99.522 243.950,99.995 245.600 C 100.469 247.250,101.458 249.500,102.195 250.600 C 102.932 251.700,104.186 253.950,104.984 255.600 C 105.781 257.250,107.023 259.230,107.745 260.000 C 108.467 260.770,109.388 261.940,109.793 262.600 C 111.358 265.151,121.186 275.600,122.021 275.600 C 122.248 275.600,123.282 276.388,124.317 277.350 C 125.353 278.313,127.152 279.579,128.316 280.165 C 129.480 280.751,131.242 281.848,132.233 282.604 C 133.224 283.361,134.971 284.298,136.117 284.688 C 137.263 285.078,139.820 286.229,141.800 287.246 C 152.063 292.520,179.771 296.585,185.665 293.681 L 187.531 292.762 187.679 290.281 C 187.760 288.916,187.601 286.000,187.326 283.800 C 184.644 262.344,184.301 260.076,183.334 257.400 C 182.778 255.860,181.515 252.271,180.529 249.425 C 179.542 246.578,178.193 243.462,177.531 242.500 C 176.869 241.537,175.800 239.588,175.157 238.168 C 174.513 236.749,173.393 234.915,172.667 234.093 C 171.942 233.272,170.878 231.790,170.304 230.800 C 167.859 226.587,158.487 217.367,154.000 214.760 C 152.790 214.057,151.250 212.967,150.578 212.338 C 149.906 211.709,147.868 210.576,146.050 209.821 C 144.231 209.065,141.901 207.913,140.872 207.260 C 139.842 206.607,137.134 205.520,134.853 204.844 C 132.572 204.167,129.692 203.133,128.453 202.546 C 125.314 201.058,123.027 200.518,117.652 199.993 C 115.094 199.743,110.624 199.282,107.719 198.969 C 100.933 198.238,97.721 198.264,96.200 199.062 M291.000 199.019 C 288.360 199.311,284.220 199.750,281.800 199.993 C 276.693 200.506,273.399 201.284,270.829 202.583 C 269.823 203.092,267.110 204.083,264.800 204.787 C 262.490 205.491,259.430 206.751,258.000 207.588 C 256.570 208.425,254.500 209.432,253.400 209.826 C 251.587 210.476,249.311 211.760,248.800 212.420 C 248.690 212.562,247.340 213.458,245.800 214.410 C 241.090 217.323,232.953 225.045,230.004 229.400 C 229.259 230.500,227.973 232.210,227.147 233.200 C 226.320 234.190,225.202 236.000,224.661 237.223 C 224.121 238.445,223.238 239.975,222.699 240.623 C 221.371 242.218,221.068 242.860,219.785 246.800 C 219.176 248.670,218.183 251.195,217.578 252.410 C 215.446 256.699,212.469 273.207,211.804 284.430 C 211.225 294.216,211.687 294.645,222.600 294.464 C 230.579 294.332,236.868 293.595,241.600 292.237 C 243.470 291.700,247.051 290.775,249.558 290.182 C 252.484 289.489,255.160 288.549,257.032 287.558 C 258.635 286.708,261.149 285.560,262.619 285.007 C 264.088 284.454,266.125 283.394,267.145 282.650 C 268.165 281.907,269.990 280.804,271.200 280.199 C 272.410 279.595,274.247 278.313,275.283 277.350 C 276.318 276.388,277.349 275.600,277.573 275.600 C 278.628 275.600,289.044 264.274,290.347 261.711 C 290.819 260.782,291.748 259.404,292.411 258.649 C 293.074 257.893,294.316 255.763,295.170 253.914 C 296.024 252.066,297.168 250.024,297.712 249.377 C 298.687 248.217,299.457 246.331,300.399 242.800 C 300.662 241.810,301.304 240.097,301.824 238.994 C 303.485 235.469,304.015 233.533,304.999 227.400 C 307.478 211.942,308.003 203.166,306.546 201.524 C 303.608 198.212,301.435 197.862,291.000 199.019 M398.100 289.876 C 398.485 289.976,399.115 289.976,399.500 289.876 C 399.885 289.775,399.570 289.693,398.800 289.693 C 398.030 289.693,397.715 289.775,398.100 289.876 M397.600 294.000 C 397.600 294.622,397.867 294.800,398.800 294.800 C 399.733 294.800,400.000 294.622,400.000 294.000 C 400.000 293.378,399.733 293.200,398.800 293.200 C 397.867 293.200,397.600 293.378,397.600 294.000 M-0.000 316.600 L -0.000 322.451 1.298 322.325 C 2.830 322.177,3.091 321.418,3.130 317.000 C 3.171 312.203,2.818 311.022,1.295 310.875 L -0.000 310.749 -0.000 316.600 M396.832 325.713 C 396.814 326.105,396.395 326.589,395.900 326.788 C 395.291 327.032,395.210 327.157,395.651 327.175 C 396.474 327.207,397.341 326.190,397.069 325.513 C 396.942 325.196,396.851 325.272,396.832 325.713 M2.446 327.900 C 2.419 328.904,2.581 329.600,2.843 329.600 C 3.086 329.600,3.191 329.848,3.074 330.150 C 2.945 330.488,3.116 330.681,3.516 330.650 C 3.876 330.623,4.239 330.960,4.323 331.400 C 4.448 332.047,4.379 332.104,3.959 331.700 C 3.346 331.109,2.800 331.049,2.800 331.573 C 2.800 332.228,4.472 332.529,4.850 331.943 C 5.119 331.526,5.273 331.513,5.514 331.885 C 5.696 332.165,6.217 332.268,6.748 332.129 C 7.436 331.950,7.533 331.804,7.134 331.551 C 6.734 331.297,6.726 331.211,7.100 331.206 C 7.430 331.202,7.600 330.545,7.600 329.273 C 7.600 327.316,5.225 326.036,5.188 327.973 C 5.177 328.519,5.126 328.515,4.789 327.937 C 4.558 327.542,4.093 327.355,3.637 327.474 C 3.124 327.609,2.811 327.432,2.683 326.937 C 2.578 326.532,2.472 326.965,2.446 327.900 M5.733 330.629 C 5.426 331.430,5.081 331.342,4.432 330.300 C 3.902 329.449,3.912 329.433,4.611 330.000 C 5.286 330.548,5.325 330.535,5.066 329.843 C 4.829 329.213,4.879 329.168,5.367 329.573 C 5.689 329.840,5.854 330.315,5.733 330.629 M8.256 340.910 C 7.686 341.326,7.581 341.927,7.680 344.210 L 7.800 347.000 9.876 347.352 C 12.942 347.873,13.201 347.667,13.195 344.713 C 13.186 340.693,13.025 340.400,10.830 340.400 C 9.798 340.400,8.639 340.629,8.256 340.910 M13.049 351.920 C 12.941 352.096,13.278 352.240,13.800 352.240 C 14.322 352.240,14.659 352.096,14.551 351.920 C 14.442 351.744,14.104 351.600,13.800 351.600 C 13.496 351.600,13.158 351.744,13.049 351.920 M17.795 356.738 C 17.385 357.148,17.623 361.463,18.080 361.920 C 18.344 362.184,19.402 362.400,20.430 362.400 L 22.301 362.400 22.483 364.600 C 22.707 367.300,22.700 367.293,25.382 367.515 L 27.563 367.696 27.681 369.948 L 27.800 372.200 30.052 372.319 L 32.304 372.437 32.485 374.618 C 32.713 377.371,34.212 378.236,37.376 377.442 C 39.686 376.862,38.624 371.600,36.196 371.600 C 34.499 371.600,33.740 370.887,33.463 369.035 C 33.169 367.066,32.882 366.788,30.863 366.518 C 29.160 366.289,28.662 365.562,28.322 362.808 C 28.217 361.955,27.920 361.769,26.212 361.484 C 23.668 361.059,23.200 360.642,23.200 358.800 C 23.200 357.974,22.945 357.086,22.633 356.828 C 22.101 356.386,18.219 356.314,17.795 356.738 M47.600 383.224 C 47.600 383.744,47.770 383.942,48.062 383.762 C 48.378 383.566,48.413 383.653,48.173 384.038 C 47.721 384.762,47.644 387.200,48.073 387.200 C 48.253 387.200,48.400 386.990,48.400 386.733 C 48.400 386.477,48.518 386.385,48.663 386.530 C 48.808 386.675,49.168 386.593,49.463 386.348 C 49.835 386.039,50.000 386.034,50.000 386.331 C 50.000 386.567,49.685 386.944,49.300 387.168 C 48.333 387.731,49.421 387.724,50.475 387.160 C 51.072 386.840,51.222 386.840,51.025 387.160 C 50.720 387.652,51.576 387.749,52.208 387.294 C 52.432 387.132,52.666 385.965,52.729 384.700 L 52.843 382.400 50.221 382.400 C 47.842 382.400,47.600 382.476,47.600 383.224 M84.300 397.480 C 82.945 397.632,82.800 397.762,82.800 398.824 L 82.800 400.000 92.200 400.000 L 101.600 400.000 101.600 398.800 C 101.600 397.718,101.472 397.598,100.300 397.575 C 89.391 397.363,85.552 397.340,84.300 397.480 M299.500 397.491 C 298.142 397.633,298.000 397.760,298.000 398.824 L 298.000 400.000 307.600 400.000 L 317.200 400.000 317.200 398.600 L 317.200 397.200 309.100 397.267 C 304.645 397.304,300.325 397.405,299.500 397.491 M102.893 398.800 C 102.893 399.570,102.975 399.885,103.076 399.500 C 103.176 399.115,103.176 398.485,103.076 398.100 C 102.975 397.715,102.893 398.030,102.893 398.800 M106.493 398.800 C 106.493 399.570,106.575 399.885,106.676 399.500 C 106.776 399.115,106.776 398.485,106.676 398.100 C 106.575 397.715,106.493 398.030,106.493 398.800 M112.893 398.800 C 112.893 399.570,112.975 399.885,113.076 399.500 C 113.176 399.115,113.176 398.485,113.076 398.100 C 112.975 397.715,112.893 398.030,112.893 398.800 M115.293 398.800 C 115.293 399.570,115.375 399.885,115.476 399.500 C 115.576 399.115,115.576 398.485,115.476 398.100 C 115.375 397.715,115.293 398.030,115.293 398.800 M117.693 398.800 C 117.693 399.570,117.775 399.885,117.876 399.500 C 117.976 399.115,117.976 398.485,117.876 398.100 C 117.775 397.715,117.693 398.030,117.693 398.800 M120.000 398.800 C 120.000 399.460,120.180 400.000,120.400 400.000 C 120.620 400.000,120.800 399.460,120.800 398.800 C 120.800 398.140,120.620 397.600,120.400 397.600 C 120.180 397.600,120.000 398.140,120.000 398.800 M122.800 398.800 C 122.800 399.460,122.980 400.000,123.200 400.000 C 123.420 400.000,123.600 399.460,123.600 398.800 C 123.600 398.140,123.420 397.600,123.200 397.600 C 122.980 397.600,122.800 398.140,122.800 398.800 M126.093 398.800 C 126.093 399.570,126.175 399.885,126.276 399.500 C 126.376 399.115,126.376 398.485,126.276 398.100 C 126.175 397.715,126.093 398.030,126.093 398.800 M126.800 398.800 L 126.800 400.000 135.000 400.000 L 143.200 400.000 143.200 398.800 L 143.200 397.600 135.000 397.600 L 126.800 397.600 126.800 398.800 M143.600 398.800 C 143.600 399.867,143.733 400.000,144.800 400.000 C 145.867 400.000,146.000 399.867,146.000 398.800 C 146.000 397.733,145.867 397.600,144.800 397.600 C 143.733 397.600,143.600 397.733,143.600 398.800 M146.400 398.800 C 146.400 399.460,146.580 400.000,146.800 400.000 C 147.020 400.000,147.200 399.460,147.200 398.800 C 147.200 398.140,147.020 397.600,146.800 397.600 C 146.580 397.600,146.400 398.140,146.400 398.800 M148.800 398.800 C 148.800 399.733,148.978 400.000,149.600 400.000 C 150.222 400.000,150.400 399.733,150.400 398.800 C 150.400 397.867,150.222 397.600,149.600 397.600 C 148.978 397.600,148.800 397.867,148.800 398.800 M153.293 398.800 C 153.293 399.570,153.375 399.885,153.476 399.500 C 153.576 399.115,153.576 398.485,153.476 398.100 C 153.375 397.715,153.293 398.030,153.293 398.800 M154.493 398.800 C 154.493 399.570,154.575 399.885,154.676 399.500 C 154.776 399.115,154.776 398.485,154.676 398.100 C 154.575 397.715,154.493 398.030,154.493 398.800 M155.600 398.800 C 155.600 399.460,155.780 400.000,156.000 400.000 C 156.220 400.000,156.400 399.460,156.400 398.800 C 156.400 398.140,156.220 397.600,156.000 397.600 C 155.780 397.600,155.600 398.140,155.600 398.800 M156.893 398.800 C 156.893 399.570,156.975 399.885,157.076 399.500 C 157.176 399.115,157.176 398.485,157.076 398.100 C 156.975 397.715,156.893 398.030,156.893 398.800 M158.400 398.800 C 158.400 399.867,158.533 400.000,159.600 400.000 C 160.667 400.000,160.800 399.867,160.800 398.800 C 160.800 397.733,160.667 397.600,159.600 397.600 C 158.533 397.600,158.400 397.733,158.400 398.800 M161.693 398.800 C 161.693 399.570,161.775 399.885,161.876 399.500 C 161.976 399.115,161.976 398.485,161.876 398.100 C 161.775 397.715,161.693 398.030,161.693 398.800 M163.200 398.800 C 163.200 399.460,163.380 400.000,163.600 400.000 C 163.820 400.000,164.000 399.460,164.000 398.800 C 164.000 398.140,163.820 397.600,163.600 397.600 C 163.380 397.600,163.200 398.140,163.200 398.800 M166.893 398.800 C 166.893 399.570,166.975 399.885,167.076 399.500 C 167.176 399.115,167.176 398.485,167.076 398.100 C 166.975 397.715,166.893 398.030,166.893 398.800 M168.093 398.800 C 168.093 399.570,168.175 399.885,168.276 399.500 C 168.376 399.115,168.376 398.485,168.276 398.100 C 168.175 397.715,168.093 398.030,168.093 398.800 M169.200 398.800 C 169.200 399.600,169.400 400.000,169.800 400.000 C 170.200 400.000,170.400 399.600,170.400 398.800 C 170.400 398.000,170.200 397.600,169.800 397.600 C 169.400 397.600,169.200 398.000,169.200 398.800 M172.000 398.800 C 172.000 399.867,172.133 400.000,173.200 400.000 C 174.267 400.000,174.400 399.867,174.400 398.800 C 174.400 397.733,174.267 397.600,173.200 397.600 C 172.133 397.600,172.000 397.733,172.000 398.800 M178.893 398.800 C 178.893 399.570,178.975 399.885,179.076 399.500 C 179.176 399.115,179.176 398.485,179.076 398.100 C 178.975 397.715,178.893 398.030,178.893 398.800 M180.493 398.800 C 180.493 399.570,180.575 399.885,180.676 399.500 C 180.776 399.115,180.776 398.485,180.676 398.100 C 180.575 397.715,180.493 398.030,180.493 398.800 M181.293 398.800 C 181.293 399.570,181.375 399.885,181.476 399.500 C 181.576 399.115,181.576 398.485,181.476 398.100 C 181.375 397.715,181.293 398.030,181.293 398.800 M182.000 398.800 C 182.000 399.460,182.180 400.000,182.400 400.000 C 182.620 400.000,182.800 399.460,182.800 398.800 C 182.800 398.140,182.620 397.600,182.400 397.600 C 182.180 397.600,182.000 398.140,182.000 398.800 M183.200 398.800 C 183.200 399.460,183.380 400.000,183.600 400.000 C 183.820 400.000,184.000 399.460,184.000 398.800 C 184.000 398.140,183.820 397.600,183.600 397.600 C 183.380 397.600,183.200 398.140,183.200 398.800 M193.293 398.800 C 193.293 399.570,193.375 399.885,193.476 399.500 C 193.576 399.115,193.576 398.485,193.476 398.100 C 193.375 397.715,193.293 398.030,193.293 398.800 M195.293 398.800 C 195.293 399.570,195.375 399.885,195.476 399.500 C 195.576 399.115,195.576 398.485,195.476 398.100 C 195.375 397.715,195.293 398.030,195.293 398.800 M196.893 398.800 C 196.893 399.570,196.975 399.885,197.076 399.500 C 197.176 399.115,197.176 398.485,197.076 398.100 C 196.975 397.715,196.893 398.030,196.893 398.800 M198.893 398.800 C 198.893 399.570,198.975 399.885,199.076 399.500 C 199.176 399.115,199.176 398.485,199.076 398.100 C 198.975 397.715,198.893 398.030,198.893 398.800 M201.200 398.800 C 201.200 399.460,201.380 400.000,201.600 400.000 C 201.820 400.000,202.000 399.460,202.000 398.800 C 202.000 398.140,201.820 397.600,201.600 397.600 C 201.380 397.600,201.200 398.140,201.200 398.800 M203.600 398.800 C 203.600 399.813,203.756 400.000,204.600 400.000 C 205.444 400.000,205.600 399.813,205.600 398.800 C 205.600 397.787,205.444 397.600,204.600 397.600 C 203.756 397.600,203.600 397.787,203.600 398.800 M206.400 398.800 C 206.400 399.813,206.556 400.000,207.400 400.000 C 208.244 400.000,208.400 399.813,208.400 398.800 C 208.400 397.787,208.244 397.600,207.400 397.600 C 206.556 397.600,206.400 397.787,206.400 398.800 M210.400 398.800 C 210.400 399.600,210.600 400.000,211.000 400.000 C 211.400 400.000,211.600 399.600,211.600 398.800 C 211.600 398.000,211.400 397.600,211.000 397.600 C 210.600 397.600,210.400 398.000,210.400 398.800 M215.200 398.800 C 215.200 399.600,215.400 400.000,215.800 400.000 C 216.200 400.000,216.400 399.600,216.400 398.800 C 216.400 398.000,216.200 397.600,215.800 397.600 C 215.400 397.600,215.200 398.000,215.200 398.800 M254.093 398.800 C 254.093 399.570,254.175 399.885,254.276 399.500 C 254.376 399.115,254.376 398.485,254.276 398.100 C 254.175 397.715,254.093 398.030,254.093 398.800 M256.400 398.800 C 256.400 399.460,256.580 400.000,256.800 400.000 C 257.020 400.000,257.200 399.460,257.200 398.800 C 257.200 398.140,257.020 397.600,256.800 397.600 C 256.580 397.600,256.400 398.140,256.400 398.800 M258.893 398.800 C 258.893 399.570,258.975 399.885,259.076 399.500 C 259.176 399.115,259.176 398.485,259.076 398.100 C 258.975 397.715,258.893 398.030,258.893 398.800 M261.200 398.800 C 261.200 399.460,261.380 400.000,261.600 400.000 C 261.820 400.000,262.000 399.460,262.000 398.800 C 262.000 398.140,261.820 397.600,261.600 397.600 C 261.380 397.600,261.200 398.140,261.200 398.800 M263.200 398.800 C 263.200 399.733,263.378 400.000,264.000 400.000 C 264.622 400.000,264.800 399.733,264.800 398.800 C 264.800 397.867,264.622 397.600,264.000 397.600 C 263.378 397.600,263.200 397.867,263.200 398.800 M265.293 398.800 C 265.293 399.570,265.375 399.885,265.476 399.500 C 265.576 399.115,265.576 398.485,265.476 398.100 C 265.375 397.715,265.293 398.030,265.293 398.800 M266.800 398.800 C 266.800 399.600,267.000 400.000,267.400 400.000 C 267.800 400.000,268.000 399.600,268.000 398.800 C 268.000 398.000,267.800 397.600,267.400 397.600 C 267.000 397.600,266.800 398.000,266.800 398.800 M268.400 398.800 C 268.400 399.460,268.580 400.000,268.800 400.000 C 269.020 400.000,269.200 399.460,269.200 398.800 C 269.200 398.140,269.020 397.600,268.800 397.600 C 268.580 397.600,268.400 398.140,268.400 398.800 M270.000 398.800 C 270.000 399.460,270.180 400.000,270.400 400.000 C 270.620 400.000,270.800 399.460,270.800 398.800 C 270.800 398.140,270.620 397.600,270.400 397.600 C 270.180 397.600,270.000 398.140,270.000 398.800 M271.600 398.800 C 271.600 399.600,271.800 400.000,272.200 400.000 C 272.600 400.000,272.800 399.600,272.800 398.800 C 272.800 398.000,272.600 397.600,272.200 397.600 C 271.800 397.600,271.600 398.000,271.600 398.800 M273.200 398.800 C 273.200 399.460,273.380 400.000,273.600 400.000 C 273.820 400.000,274.000 399.460,274.000 398.800 C 274.000 398.140,273.820 397.600,273.600 397.600 C 273.380 397.600,273.200 398.140,273.200 398.800 M275.200 398.800 C 275.200 399.460,275.380 400.000,275.600 400.000 C 275.820 400.000,276.000 399.460,276.000 398.800 C 276.000 398.140,275.820 397.600,275.600 397.600 C 275.380 397.600,275.200 398.140,275.200 398.800 M276.893 398.800 C 276.893 399.570,276.975 399.885,277.076 399.500 C 277.176 399.115,277.176 398.485,277.076 398.100 C 276.975 397.715,276.893 398.030,276.893 398.800 M280.093 398.800 C 280.093 399.570,280.175 399.885,280.276 399.500 C 280.376 399.115,280.376 398.485,280.276 398.100 C 280.175 397.715,280.093 398.030,280.093 398.800 M285.293 398.800 C 285.293 399.570,285.375 399.885,285.476 399.500 C 285.576 399.115,285.576 398.485,285.476 398.100 C 285.375 397.715,285.293 398.030,285.293 398.800 M286.893 398.800 C 286.893 399.570,286.975 399.885,287.076 399.500 C 287.176 399.115,287.176 398.485,287.076 398.100 C 286.975 397.715,286.893 398.030,286.893 398.800 M288.400 398.800 C 288.400 399.600,288.600 400.000,289.000 400.000 C 289.400 400.000,289.600 399.600,289.600 398.800 C 289.600 398.000,289.400 397.600,289.000 397.600 C 288.600 397.600,288.400 398.000,288.400 398.800 M296.893 398.800 C 296.893 399.570,296.975 399.885,297.076 399.500 C 297.176 399.115,297.176 398.485,297.076 398.100 C 296.975 397.715,296.893 398.030,296.893 398.800 " stroke="none" fill="#d3e333" fill-rule="evenodd"></path><path id="path1" d="M83.264 1.100 L 83.200 2.400 78.100 2.452 C 75.295 2.480,72.145 2.463,71.100 2.415 C 69.897 2.359,69.200 2.493,69.200 2.781 C 69.200 3.031,68.887 3.182,68.504 3.118 C 67.910 3.017,67.808 3.338,67.804 5.300 L 67.800 7.600 63.180 7.600 C 57.859 7.600,57.600 7.734,57.600 10.480 L 57.600 12.400 53.800 12.400 C 51.700 12.400,50.000 12.568,50.000 12.775 C 50.000 12.982,49.505 13.117,48.900 13.075 C 47.856 13.004,47.799 13.091,47.772 14.800 C 47.756 15.790,47.711 16.800,47.672 17.044 C 47.632 17.289,46.669 17.599,45.530 17.734 C 43.147 18.016,42.815 18.375,42.806 20.671 L 42.800 22.342 40.500 22.625 C 37.820 22.955,37.614 23.172,37.606 25.680 L 37.600 27.560 35.300 27.680 L 33.000 27.800 32.640 30.069 C 32.260 32.464,31.903 32.782,29.580 32.795 C 27.837 32.804,27.600 33.436,27.600 38.080 L 27.600 42.400 25.480 42.400 C 22.830 42.400,22.400 42.830,22.400 45.480 L 22.400 47.600 20.000 47.600 L 17.600 47.600 17.600 50.165 L 17.600 52.730 16.036 52.994 C 13.551 53.414,12.400 55.828,12.400 60.620 L 12.400 62.400 10.633 62.400 C 7.547 62.400,7.600 62.308,7.600 67.643 L 7.600 72.400 5.480 72.400 C 2.182 72.400,1.948 73.031,2.871 79.416 C 3.627 84.646,3.007 88.161,1.300 88.325 L 0.000 88.451 0.000 199.600 L 0.000 310.749 1.291 310.875 C 3.228 311.063,3.636 315.042,2.545 323.109 C 2.187 325.758,2.674 327.726,3.627 327.477 C 4.094 327.355,4.555 327.538,4.789 327.937 C 5.126 328.515,5.177 328.519,5.188 327.973 C 5.225 326.036,7.600 327.316,7.600 329.273 C 7.600 330.545,7.430 331.202,7.100 331.206 C 6.760 331.210,6.793 331.350,7.200 331.641 C 7.682 331.985,7.623 332.031,6.899 331.872 C 6.404 331.763,6.100 331.838,6.223 332.037 C 6.346 332.237,6.707 332.400,7.024 332.400 C 7.537 332.400,7.958 338.247,7.624 340.727 C 7.569 341.131,7.738 341.154,8.350 340.827 C 9.893 340.001,12.676 340.287,12.948 341.300 C 13.275 342.519,13.265 347.002,12.935 347.332 C 12.429 347.838,12.368 350.067,12.869 349.757 C 13.168 349.573,13.253 349.672,13.106 350.034 C 12.980 350.345,12.759 350.892,12.615 351.248 C 12.452 351.654,12.595 351.989,12.998 352.144 C 13.372 352.287,13.539 352.225,13.397 351.995 C 13.263 351.778,13.423 351.600,13.753 351.600 C 14.083 351.600,14.471 351.791,14.615 352.024 C 14.759 352.257,15.264 352.417,15.738 352.379 C 17.509 352.240,17.600 352.345,17.600 354.527 L 17.600 356.654 19.808 356.485 C 22.495 356.279,23.200 356.760,23.200 358.800 C 23.200 360.642,23.668 361.059,26.212 361.484 C 27.920 361.769,28.217 361.955,28.322 362.808 C 28.662 365.562,29.160 366.289,30.863 366.518 C 32.882 366.788,33.169 367.066,33.463 369.035 C 33.740 370.887,34.499 371.600,36.196 371.600 C 36.880 371.600,37.656 371.816,37.920 372.080 C 38.570 372.730,38.554 377.071,37.900 377.335 C 37.625 377.446,38.516 377.551,39.880 377.568 L 42.360 377.600 42.480 379.900 L 42.600 382.200 47.721 382.312 L 52.842 382.424 52.728 384.712 C 52.666 385.970,52.432 387.132,52.208 387.294 C 51.983 387.456,53.105 387.591,54.700 387.594 L 57.600 387.600 57.655 389.300 C 57.685 390.235,57.711 391.289,57.712 391.643 C 57.713 391.997,58.003 392.287,58.357 392.288 C 58.711 392.289,62.015 392.315,65.700 392.345 L 72.400 392.400 72.400 394.371 C 72.400 397.785,72.103 397.709,84.570 397.502 C 90.526 397.404,96.795 397.400,98.500 397.493 L 101.600 397.663 101.600 398.832 C 101.600 400.488,102.702 400.378,102.911 398.700 L 103.072 397.400 103.136 398.700 C 103.197 399.936,103.278 400.000,104.775 400.000 C 106.251 400.000,106.359 399.919,106.511 398.700 L 106.672 397.400 106.736 398.700 L 106.800 400.000 109.775 400.000 L 112.749 400.000 112.911 398.700 L 113.072 397.400 113.136 398.700 C 113.190 399.793,113.355 400.000,114.175 400.000 C 114.975 400.000,115.178 399.767,115.311 398.700 L 115.472 397.400 115.536 398.700 C 115.590 399.793,115.755 400.000,116.575 400.000 C 117.375 400.000,117.578 399.767,117.711 398.700 L 117.872 397.400 117.936 398.700 C 118.028 400.574,120.000 400.670,120.000 398.800 C 120.000 398.140,120.180 397.600,120.400 397.600 C 120.620 397.600,120.800 398.140,120.800 398.800 C 120.800 399.813,120.956 400.000,121.800 400.000 C 122.644 400.000,122.800 399.813,122.800 398.800 C 122.800 398.140,122.980 397.600,123.200 397.600 C 123.420 397.600,123.600 398.140,123.600 398.800 C 123.600 400.704,125.975 400.607,126.053 398.700 L 126.105 397.400 126.400 398.800 L 126.695 400.200 126.747 398.900 L 126.800 397.600 134.975 397.600 L 143.149 397.600 143.311 398.900 L 143.472 400.200 143.536 398.900 C 143.633 396.937,145.867 396.937,146.111 398.900 L 146.272 400.200 146.336 398.900 C 146.416 397.265,147.200 397.175,147.200 398.800 C 147.200 399.733,147.378 400.000,148.000 400.000 C 148.622 400.000,148.800 399.733,148.800 398.800 C 148.800 397.867,148.978 397.600,149.600 397.600 C 150.222 397.600,150.400 397.867,150.400 398.800 C 150.400 400.711,153.073 400.619,153.311 398.700 L 153.472 397.400 153.536 398.700 C 153.619 400.383,154.302 400.383,154.511 398.700 L 154.672 397.400 154.736 398.700 C 154.816 400.335,155.600 400.425,155.600 398.800 C 155.600 397.173,156.386 397.265,156.453 398.900 L 156.505 400.200 156.800 398.800 L 157.095 397.400 157.147 398.700 C 157.218 400.435,158.400 400.529,158.400 398.800 C 158.400 397.733,158.533 397.600,159.600 397.600 C 160.667 397.600,160.800 397.733,160.800 398.800 C 160.800 400.412,161.508 400.334,161.711 398.700 L 161.872 397.400 161.936 398.700 C 162.021 400.433,163.200 400.526,163.200 398.800 C 163.200 398.140,163.380 397.600,163.600 397.600 C 163.820 397.600,164.000 398.140,164.000 398.800 C 164.000 400.711,166.673 400.619,166.911 398.700 L 167.072 397.400 167.136 398.700 C 167.171 399.415,167.369 400.000,167.575 400.000 C 167.781 400.000,168.022 399.415,168.111 398.700 L 168.272 397.400 168.336 398.700 C 168.416 400.335,169.200 400.425,169.200 398.800 C 169.200 398.000,169.400 397.600,169.800 397.600 C 170.200 397.600,170.400 398.000,170.400 398.800 C 170.400 399.733,170.578 400.000,171.200 400.000 C 171.822 400.000,172.000 399.733,172.000 398.800 C 172.000 397.733,172.133 397.600,173.200 397.600 C 174.267 397.600,174.400 397.733,174.400 398.800 C 174.400 400.764,178.666 400.670,178.911 398.700 L 179.072 397.400 179.136 398.700 C 179.178 399.560,179.403 400.000,179.800 400.000 C 180.199 400.000,180.418 399.565,180.453 398.700 L 180.505 397.400 180.800 398.800 L 181.095 400.200 181.200 398.800 L 181.305 397.400 181.600 398.800 L 181.895 400.200 181.947 398.900 C 181.976 398.185,182.169 397.600,182.375 397.600 C 182.581 397.600,182.822 398.185,182.911 398.900 L 183.072 400.200 183.136 398.900 C 183.216 397.265,184.000 397.175,184.000 398.800 L 184.000 400.000 188.575 400.000 L 193.149 400.000 193.311 398.700 L 193.472 397.400 193.536 398.700 C 193.585 399.697,193.780 400.000,194.375 400.000 C 194.949 400.000,195.191 399.664,195.311 398.700 L 195.472 397.400 195.536 398.700 C 195.577 399.534,195.806 400.000,196.175 400.000 C 196.523 400.000,196.813 399.489,196.911 398.700 L 197.072 397.400 197.136 398.700 C 197.185 399.697,197.380 400.000,197.975 400.000 C 198.549 400.000,198.791 399.664,198.911 398.700 L 199.072 397.400 199.136 398.700 C 199.228 400.574,201.200 400.670,201.200 398.800 C 201.200 398.140,201.380 397.600,201.600 397.600 C 201.820 397.600,202.000 398.140,202.000 398.800 C 202.000 399.733,202.178 400.000,202.800 400.000 C 203.422 400.000,203.600 399.733,203.600 398.800 C 203.600 397.787,203.756 397.600,204.600 397.600 C 205.444 397.600,205.600 397.787,205.600 398.800 C 205.600 399.460,205.780 400.000,206.000 400.000 C 206.220 400.000,206.400 399.460,206.400 398.800 C 206.400 397.787,206.556 397.600,207.400 397.600 C 208.244 397.600,208.400 397.787,208.400 398.800 C 208.400 399.813,208.556 400.000,209.400 400.000 C 210.244 400.000,210.400 399.813,210.400 398.800 C 210.400 398.000,210.600 397.600,211.000 397.600 C 211.400 397.600,211.600 398.000,211.600 398.800 C 211.600 399.956,211.667 400.000,213.400 400.000 C 215.133 400.000,215.200 399.956,215.200 398.800 C 215.200 398.000,215.400 397.600,215.800 397.600 C 216.200 397.600,216.400 398.000,216.400 398.800 L 216.400 400.000 235.175 400.000 L 253.949 400.000 254.111 398.700 L 254.272 397.400 254.336 398.700 C 254.428 400.574,256.400 400.670,256.400 398.800 C 256.400 398.140,256.580 397.600,256.800 397.600 C 257.020 397.600,257.200 398.140,257.200 398.800 C 257.200 400.589,258.687 400.502,258.911 398.700 L 259.072 397.400 259.136 398.700 C 259.228 400.574,261.200 400.670,261.200 398.800 C 261.200 398.140,261.380 397.600,261.600 397.600 C 261.820 397.600,262.000 398.140,262.000 398.800 C 262.000 399.600,262.200 400.000,262.600 400.000 C 263.000 400.000,263.200 399.600,263.200 398.800 C 263.200 396.980,264.779 397.075,264.853 398.900 L 264.905 400.200 265.200 398.800 L 265.495 397.400 265.547 398.700 C 265.618 400.435,266.800 400.529,266.800 398.800 C 266.800 397.117,267.900 397.201,268.111 398.900 L 268.272 400.200 268.336 398.900 C 268.416 397.265,269.200 397.175,269.200 398.800 C 269.200 399.460,269.380 400.000,269.600 400.000 C 269.820 400.000,270.000 399.460,270.000 398.800 C 270.000 398.140,270.180 397.600,270.400 397.600 C 270.620 397.600,270.800 398.140,270.800 398.800 C 270.800 399.460,270.980 400.000,271.200 400.000 C 271.420 400.000,271.600 399.460,271.600 398.800 C 271.600 397.117,272.700 397.201,272.911 398.900 L 273.072 400.200 273.136 398.900 C 273.216 397.265,274.000 397.175,274.000 398.800 C 274.000 399.600,274.200 400.000,274.600 400.000 C 275.000 400.000,275.200 399.600,275.200 398.800 C 275.200 398.140,275.380 397.600,275.600 397.600 C 275.820 397.600,276.000 398.140,276.000 398.800 C 276.000 400.412,276.708 400.334,276.911 398.700 L 277.072 397.400 277.136 398.700 C 277.234 400.691,279.864 400.691,280.111 398.700 L 280.272 397.400 280.336 398.700 L 280.400 400.000 282.775 400.000 L 285.149 400.000 285.311 398.700 L 285.472 397.400 285.536 398.700 C 285.622 400.452,286.693 400.452,286.911 398.700 L 287.072 397.400 287.136 398.700 C 287.221 400.433,288.400 400.526,288.400 398.800 C 288.400 398.000,288.600 397.600,289.000 397.600 C 289.400 397.600,289.600 398.000,289.600 398.800 L 289.600 400.000 293.175 400.000 L 296.749 400.000 296.911 398.700 L 297.072 397.400 297.136 398.700 C 297.215 400.301,298.000 400.442,298.000 398.856 C 298.000 397.387,299.264 397.208,309.700 397.203 L 317.200 397.200 317.253 398.700 L 317.305 400.200 317.553 398.800 C 317.788 397.468,317.887 397.394,319.600 397.281 C 321.781 397.137,322.400 396.442,322.400 394.132 L 322.400 392.418 329.900 392.309 L 337.400 392.200 337.520 389.912 L 337.639 387.624 342.520 387.512 L 347.400 387.400 347.519 384.900 L 347.638 382.400 352.019 382.350 C 354.429 382.322,356.625 382.276,356.900 382.246 C 357.184 382.216,357.421 381.588,357.449 380.796 C 357.567 377.412,357.388 377.651,359.900 377.520 L 362.200 377.400 362.319 374.919 L 362.437 372.437 364.919 372.319 L 367.400 372.200 367.519 369.919 L 367.639 367.639 369.919 367.519 L 372.200 367.400 372.319 364.919 L 372.437 362.437 374.919 362.319 L 377.400 362.200 377.520 359.900 C 377.651 357.389,377.479 357.518,380.796 357.435 C 381.595 357.415,382.215 357.186,382.246 356.900 C 382.276 356.625,382.322 354.429,382.350 352.019 L 382.400 347.638 384.900 347.519 L 387.400 347.400 387.512 342.520 L 387.624 337.639 389.912 337.520 L 392.200 337.400 392.312 332.500 L 392.425 327.600 393.812 327.600 C 394.576 327.600,395.200 327.400,395.200 327.157 C 395.200 326.882,395.585 326.810,396.210 326.967 C 397.131 327.198,397.198 327.131,396.967 326.210 C 396.810 325.585,396.882 325.200,397.157 325.200 C 397.473 325.200,397.600 321.126,397.600 311.000 L 397.600 296.800 398.800 296.800 C 399.813 296.800,400.000 296.644,400.000 295.800 C 400.000 294.956,399.813 294.800,398.800 294.800 C 397.867 294.800,397.600 294.622,397.600 294.000 C 397.600 293.378,397.867 293.200,398.800 293.200 C 400.730 293.200,400.637 290.130,398.700 289.889 L 397.400 289.728 398.700 289.664 L 400.000 289.600 400.000 196.400 L 400.000 103.200 398.800 103.200 L 397.600 103.200 397.571 100.700 C 397.556 99.325,397.568 92.755,397.598 86.100 C 397.634 78.000,397.516 74.000,397.239 74.000 C 397.011 74.000,396.941 73.699,397.082 73.331 C 397.277 72.823,397.177 72.723,396.669 72.918 C 396.301 73.059,396.000 73.001,396.000 72.787 C 396.000 72.574,395.190 72.400,394.200 72.400 L 392.400 72.400 392.400 70.000 L 392.400 67.600 390.012 67.600 L 387.625 67.600 387.512 62.700 L 387.400 57.800 384.900 57.681 L 382.400 57.562 382.400 52.581 L 382.400 47.600 380.019 47.600 L 377.638 47.600 377.519 45.100 L 377.400 42.600 374.912 42.481 L 372.424 42.362 372.312 37.481 L 372.200 32.600 369.919 32.481 L 367.639 32.361 367.519 30.081 L 367.400 27.800 364.919 27.681 L 362.437 27.563 362.319 25.081 L 362.200 22.600 359.900 22.480 L 357.600 22.360 357.595 20.880 C 357.582 17.540,357.678 17.600,352.372 17.600 L 347.638 17.600 347.519 15.100 L 347.400 12.600 344.900 12.481 C 342.146 12.350,342.332 12.593,342.233 9.000 C 342.204 7.948,342.052 7.796,341.000 7.767 C 340.340 7.749,337.055 7.704,333.700 7.667 L 327.600 7.600 327.600 5.480 C 327.600 2.313,327.897 2.400,317.120 2.400 L 307.600 2.400 307.600 1.200 L 307.600 0.000 197.600 0.000 L 87.600 0.000 87.600 1.200 C 87.600 3.085,85.324 2.994,85.089 1.100 L 84.928 -0.200 84.864 1.100 C 84.778 2.852,83.707 2.852,83.489 1.100 L 83.328 -0.200 83.264 1.100 M200.459 108.783 C 202.494 109.602,203.708 110.371,204.400 111.279 C 204.950 112.001,206.318 113.493,207.439 114.596 C 208.561 115.698,209.879 117.272,210.367 118.093 C 210.856 118.914,211.748 119.936,212.349 120.363 C 212.949 120.791,213.950 122.099,214.573 123.271 C 215.196 124.442,216.486 126.413,217.440 127.650 C 218.394 128.888,219.811 131.228,220.588 132.850 C 221.366 134.473,222.456 136.418,223.010 137.173 C 223.565 137.928,224.487 140.088,225.060 141.973 C 225.632 143.858,226.602 146.399,227.216 147.621 C 232.641 158.419,232.902 190.421,227.635 198.943 C 227.203 199.642,226.189 202.100,225.380 204.407 C 224.572 206.713,223.392 209.263,222.758 210.073 C 222.124 210.883,220.969 212.869,220.191 214.486 C 219.412 216.103,218.135 218.140,217.352 219.013 C 216.569 219.886,215.511 221.410,215.000 222.400 C 214.489 223.390,213.410 224.830,212.602 225.600 C 211.793 226.370,210.865 227.510,210.538 228.133 C 210.212 228.757,209.012 230.306,207.872 231.576 C 206.733 232.845,205.022 234.814,204.071 235.950 C 202.407 237.938,199.187 240.000,197.746 240.000 C 196.974 240.000,191.192 234.154,189.777 231.943 C 189.264 231.142,188.311 230.106,187.660 229.643 C 187.009 229.179,185.997 227.982,185.411 226.983 C 184.826 225.984,183.548 224.267,182.571 223.168 C 181.595 222.068,180.272 220.131,179.631 218.862 C 178.991 217.594,177.855 215.824,177.107 214.928 C 176.359 214.033,175.416 212.423,175.011 211.350 C 174.606 210.278,173.503 208.050,172.560 206.400 C 171.616 204.750,170.552 202.230,170.194 200.800 C 169.837 199.370,168.761 195.860,167.805 193.000 C 164.399 182.814,164.123 163.629,167.255 154.800 C 168.481 151.345,169.069 149.489,170.437 144.755 C 170.857 143.300,171.680 141.410,172.266 140.555 C 172.852 139.700,174.014 137.410,174.849 135.467 C 175.684 133.523,176.989 131.246,177.748 130.405 C 178.507 129.564,179.484 128.072,179.919 127.089 C 180.354 126.106,181.329 124.604,182.087 123.751 C 182.844 122.898,184.061 121.318,184.792 120.241 C 187.399 116.395,194.883 108.943,197.459 107.630 C 197.491 107.613,198.841 108.133,200.459 108.783 M107.719 198.969 C 110.624 199.282,115.094 199.743,117.652 199.993 C 123.027 200.518,125.314 201.058,128.453 202.546 C 129.692 203.133,132.572 204.167,134.853 204.844 C 137.134 205.520,139.842 206.607,140.872 207.260 C 141.901 207.913,144.231 209.065,146.050 209.821 C 147.868 210.576,149.906 211.709,150.578 212.338 C 151.250 212.967,152.790 214.057,154.000 214.760 C 158.487 217.367,167.859 226.587,170.304 230.800 C 170.878 231.790,171.942 233.272,172.667 234.093 C 173.393 234.915,174.513 236.749,175.157 238.168 C 175.800 239.588,176.869 241.537,177.531 242.500 C 178.193 243.462,179.542 246.578,180.529 249.425 C 181.515 252.271,182.778 255.860,183.334 257.400 C 184.301 260.076,184.644 262.344,187.326 283.800 C 187.601 286.000,187.760 288.916,187.679 290.281 L 187.531 292.762 185.665 293.681 C 179.771 296.585,152.063 292.520,141.800 287.246 C 139.820 286.229,137.263 285.078,136.117 284.688 C 134.971 284.298,133.224 283.361,132.233 282.604 C 131.242 281.848,129.480 280.751,128.316 280.165 C 127.152 279.579,125.353 278.313,124.317 277.350 C 123.282 276.388,122.248 275.600,122.021 275.600 C 121.186 275.600,111.358 265.151,109.793 262.600 C 109.388 261.940,108.467 260.770,107.745 260.000 C 107.023 259.230,105.781 257.250,104.984 255.600 C 104.186 253.950,102.932 251.700,102.195 250.600 C 101.458 249.500,100.469 247.250,99.995 245.600 C 99.522 243.950,98.430 241.054,97.568 239.165 C 95.260 234.105,92.000 214.357,92.000 205.438 C 92.000 202.637,92.039 202.525,93.500 201.127 C 96.577 198.183,98.175 197.940,107.719 198.969 M304.240 199.541 C 307.236 201.734,307.293 201.871,307.282 206.882 C 307.272 211.546,306.662 217.028,304.999 227.400 C 304.015 233.533,303.485 235.469,301.824 238.994 C 301.304 240.097,300.662 241.810,300.399 242.800 C 299.457 246.331,298.687 248.217,297.712 249.377 C 297.168 250.024,296.024 252.066,295.170 253.914 C 294.316 255.763,293.074 257.893,292.411 258.649 C 291.748 259.404,290.819 260.782,290.347 261.711 C 289.044 264.274,278.628 275.600,277.573 275.600 C 277.349 275.600,276.318 276.388,275.283 277.350 C 274.247 278.313,272.410 279.595,271.200 280.199 C 269.990 280.804,268.165 281.907,267.145 282.650 C 266.125 283.394,264.088 284.454,262.619 285.007 C 261.149 285.560,258.635 286.708,257.032 287.558 C 255.160 288.549,252.484 289.489,249.558 290.182 C 247.051 290.775,243.470 291.700,241.600 292.237 C 233.907 294.445,217.462 295.335,213.952 293.734 C 212.220 292.944,212.087 292.772,211.817 290.975 C 210.814 284.287,214.717 258.165,217.578 252.410 C 218.183 251.195,219.176 248.670,219.785 246.800 C 221.068 242.860,221.371 242.218,222.699 240.623 C 223.238 239.975,224.121 238.445,224.661 237.223 C 225.202 236.000,226.320 234.190,227.147 233.200 C 227.973 232.210,229.259 230.500,230.004 229.400 C 232.953 225.045,241.090 217.323,245.800 214.410 C 247.340 213.458,248.690 212.562,248.800 212.420 C 249.311 211.760,251.587 210.476,253.400 209.826 C 254.500 209.432,256.570 208.425,258.000 207.588 C 259.430 206.751,262.490 205.491,264.800 204.787 C 267.110 204.083,269.823 203.092,270.829 202.583 C 273.399 201.284,276.693 200.506,281.800 199.993 C 284.220 199.750,288.360 199.311,291.000 199.019 C 299.447 198.082,302.405 198.199,304.240 199.541 M4.942 330.234 C 4.879 331.289,5.384 331.541,5.733 330.629 C 5.854 330.315,5.738 329.881,5.476 329.664 C 5.132 329.378,4.984 329.536,4.942 330.234 M2.403 330.300 C 2.405 330.685,2.866 331.213,3.427 331.474 C 4.315 331.886,4.430 331.860,4.309 331.274 C 4.232 330.903,3.875 330.623,3.516 330.650 C 3.116 330.681,2.945 330.488,3.074 330.150 C 3.191 329.848,3.086 329.600,2.843 329.600 C 2.599 329.600,2.401 329.915,2.403 330.300 M49.412 386.380 C 49.265 386.618,48.996 386.721,48.814 386.609 C 48.633 386.496,48.381 386.674,48.254 387.002 C 48.128 387.331,48.165 387.600,48.336 387.600 C 48.903 387.600,50.203 386.470,49.939 386.206 C 49.797 386.063,49.560 386.142,49.412 386.380 " stroke="none" fill="#040404" fill-rule="evenodd"></path></g></svg>